<?xml version="1.0" encoding="UTF-8" standalone="no"?>
<!-- Created with Inkscape (http://www.inkscape.org/) -->

<svg
   width="20"
   height="20"
   viewBox="0 0 20 20"
   version="1.1"
   id="svg1"
   xml:space="preserve"
   inkscape:export-filename="/tmp/icon.png"
   inkscape:export-xdpi="96"
   inkscape:export-ydpi="96"
   inkscape:version="1.4.2 (ebf0e940d0, 2025-05-08)"
   sodipodi:docname="icons.svg"
   xmlns:inkscape="http://www.inkscape.org/namespaces/inkscape"
   xmlns:sodipodi="http://sodipodi.sourceforge.net/DTD/sodipodi-0.dtd"
   xmlns="http://www.w3.org/2000/svg"
   xmlns:svg="http://www.w3.org/2000/svg"><sodipodi:namedview
     id="namedview1"
     pagecolor="#ffffff"
     bordercolor="#000000"
     borderopacity="0.25"
     inkscape:showpageshadow="2"
     inkscape:pageopacity="0.0"
     inkscape:pagecheckerboard="0"
     inkscape:deskcolor="#d1d1d1"
     inkscape:document-units="px"
     showguides="true"
     inkscape:zoom="18.73833"
     inkscape:cx="6.8576016"
     inkscape:cy="13.074805"
     inkscape:window-width="3420"
     inkscape:window-height="1380"
     inkscape:window-x="0"
     inkscape:window-y="0"
     inkscape:window-maximized="1"
     inkscape:current-layer="layer1"
     inkscape:export-bgcolor="#ffffffff"><sodipodi:guide
       position="8.0042007,13.654582"
       orientation="1,0"
       id="guide7"
       inkscape:locked="false" /></sodipodi:namedview><defs
     id="defs1" /><g
     inkscape:label="Calque 1"
     inkscape:groupmode="layer"
     id="layer1"><rect
       style="fill:#ffffff;fill-opacity:0.983736;stroke:none;stroke-width:1;stroke-linecap:round;stroke-linejoin:round;stroke-dasharray:none"
       id="rect7"
       width="16"
       height="16"
       x="0"
       y="0" /><path
       style="fill:#000000;stroke-width:1.29866"
       d="m -30.097332,15.745554 -0.01974,-4.008464 -2.050108,1.720887 c -1.127559,0.946487 -2.077732,1.720885 -2.111493,1.720885 -0.06018,0 -0.926363,-1.015796 -0.969024,-1.136395 -0.01195,-0.03374 1.041325,-0.949941 2.34058,-2.036001 1.299255,-1.086059 2.364166,-1.996646 2.366468,-2.0235272 0.0023,-0.026882 -1.057361,-0.9361913 -2.354811,-2.0206933 -1.297449,-1.0845007 -2.361173,-1.9995303 -2.36383,-2.033398 -0.0069,-0.087205 0.904404,-1.1584632 0.985428,-1.1584632 0.03683,0 0.995746,0.7796899 2.130936,1.7326443 l 2.06398,1.7326456 V 4.2281606 c 0,-2.2041325 0.02809,-3.99607584 0.06243,-3.98209617 0.114866,0.0467725 6.792691,5.59113537 6.796528,5.64291687 0.0021,0.028077 -0.948419,0.8493538 -2.112225,1.8250477 -1.163805,0.9756926 -2.241284,1.8846003 -2.394397,2.0197946 l -0.278389,0.2458075 2.394266,2.0086579 c 1.316847,1.104762 2.385746,2.033662 2.375335,2.064221 -0.02126,0.06239 -6.754928,5.701507 -6.808165,5.701507 -0.01871,0 -0.04291,-1.803808 -0.05377,-4.008463 z m 4.000423,-1.349722 0.436289,-0.372099 -1.236941,-1.033534 c -0.680318,-0.568445 -1.314147,-1.103736 -1.40851,-1.189537 l -0.171568,-0.156002 v 2.383015 2.383015 l 0.97222,-0.82138 c 0.534722,-0.45176 1.168551,-0.988824 1.40851,-1.193478 z M -27.04807,7.078485 c 0.712993,-0.5984323 1.297583,-1.1223735 1.299088,-1.1643124 0.0025,-0.069257 -0.666368,-0.648154 -2.175826,-1.8831783 l -0.552831,-0.4523215 v 2.3351024 c 0,1.3118984 0.02918,2.3170641 0.06661,2.2939363 0.03664,-0.022636 0.649966,-0.530793 1.362961,-1.1292265 z"
       id="path11"
       sodipodi:nodetypes="scsssscscsscssssscssssscsscccssssscsss" /><path
       style="fill:#000000;stroke-width:1.28498"
       d="m -14.885317,17.3701 c -1.478154,-0.729509 -0.948627,-3.082768 0.693679,-3.082768 1.655877,0 2.172799,2.375398 0.671911,3.087616 -0.546321,0.259247 -0.832534,0.25823 -1.36559,-0.0049 z m -3.15769,-4.106472 c -0.18539,-0.18539 -0.337074,-0.471628 -0.337074,-0.636083 0,-0.425669 0.876525,-1.197808 1.922565,-1.693602 0.811943,-0.384839 1.489194,-0.543083 2.265878,-0.543083 0.776685,0 1.453936,0.158247 2.26588,0.543083 1.046039,0.495794 1.922565,1.267933 1.922565,1.693602 0,0.368641 -0.581257,0.973157 -0.935714,0.973157 -0.143864,0 -0.532902,-0.216972 -0.86453,-0.482159 -0.634148,-0.507097 -1.663302,-0.891101 -2.388201,-0.891101 -0.724898,0 -1.754051,0.384004 -2.388199,0.891101 -0.713013,0.570161 -1.008769,0.599488 -1.46317,0.145085 z m -2.873486,-2.816875 c -0.443876,-0.4904768 -0.313742,-0.9695612 0.44846,-1.650973 0.92122,-0.8235752 1.982864,-1.4516386 3.209273,-1.8985947 0.924168,-0.3368054 2.031025,-0.5042278 3.067122,-0.5042278 1.036098,0 2.142955,0.1674237 3.067124,0.5042278 1.2264087,0.4469561 2.2880527,1.0750195 3.2092717,1.8985947 0.762202,0.6814118 0.892337,1.1604962 0.448461,1.650973 -0.398235,0.440045 -0.896428,0.335957 -1.708107,-0.35688 -2.8823107,-2.4602945 -7.1511877,-2.4602945 -10.0334977,0 -0.811679,0.692837 -1.309872,0.796925 -1.708107,0.35688 z m -2.407324,-2.5832303 c -0.397062,-0.1279066 -0.68663,-0.4884121 -0.68663,-0.8548503 0,-0.2717752 0.209294,-0.5683466 0.789625,-1.1189028 1.725994,-1.6374411 3.929917,-2.7439284 6.557316,-3.2921241 1.061076,-0.2213887 3.882661,-0.2213887 4.943737,0 2.6303037,0.5488009 4.9380877,1.7174978 6.6710797,3.3783358 0.750581,0.7193289 0.874584,1.2226403 0.405761,1.6469205 -0.451355,0.4084698 -0.885922,0.297999 -1.746564,-0.443993 -2.286234,-1.9710469 -4.8152607,-2.9163763 -7.8021457,-2.9163763 -2.960397,0 -5.499111,0.9404632 -7.758919,2.8742817 -0.820823,0.7024147 -1.058394,0.828133 -1.37326,0.7267085 z"
       id="path10"
       sodipodi:nodetypes="cssccsssassssssssssasssssssssssssssss" /><rect
       style="fill:#cccccc;fill-opacity:0.983736;stroke:#008000;stroke-width:4;stroke-linecap:round;stroke-linejoin:round"
       id="rect3"
       width="0"
       height="6.3603063"
       x="-6.1129413"
       y="-0.36889827"
       transform="rotate(-130.28738)" /><rect
       style="fill:#cccccc;fill-opacity:0.983736;stroke:#008000;stroke-width:4;stroke-linecap:round;stroke-linejoin:round"
       id="rect4"
       width="0"
       height="5.3796415"
       x="-4.4834847"
       y="-12.052001"
       transform="rotate(132.38189)" /><g
       id="g10"
       transform="matrix(1.2253649,0,0,1.2253649,24.725383,0.28935835)"><path
         id="rect6"
         style="fill-opacity:0.983736;stroke-linecap:round;stroke-linejoin:round"
         d="M 0,7.4247659 7.9957993,15.422338 16,7.4247659 7.9421252,7.4570869 Z"
         sodipodi:nodetypes="ccccc" /><rect
         style="fill:#000000;fill-opacity:0.983736;stroke:none;stroke-width:1;stroke-linecap:round;stroke-linejoin:round;stroke-dasharray:none"
         id="rect5"
         width="4.3773584"
         height="10.365734"
         x="-10.184479"
         y="-10.792784"
         rx="0"
         ry="0"
         transform="scale(-1)" /></g><g
       id="g12"
       transform="matrix(-1.2264151,0,0,-1.2264151,19.811321,19.718964)"><path
         id="path12"
         style="fill-opacity:0.983736;stroke-linecap:round;stroke-linejoin:round"
         d="M 0,7.4247659 7.9957993,15.422338 16,7.4247659 7.9421252,7.4570869 Z"
         sodipodi:nodetypes="ccccc" /><rect
         style="fill:#000000;fill-opacity:0.983736;stroke:none;stroke-width:1;stroke-linecap:round;stroke-linejoin:round;stroke-dasharray:none"
         id="rect12"
         width="4.3773584"
         height="10.365734"
         x="-10.184479"
         y="-10.792784"
         rx="0"
         ry="0"
         transform="scale(-1)" /></g></g></svg>
